<svg version="1.0" xmlns="http://www.w3.org/2000/svg" width="2634.667" height="2634.667" viewBox="0 0 1976 1976"><path d="M433.4 498.8c-.3.9-1.8 4.6-3.2 8.2-1.5 3.6-2.7 7.1-2.8 7.8-.1.6-1.1 3.1-2.2 5.5-1.1 2.3-2.9 6.7-4 9.7-1.1 3-2.6 6.8-3.3 8.5-.7 1.6-1.3 3.2-1.3 3.5-.3 1.2-6 15.6-6.6 16.5-.4.5-1.3 3-2 5.5-.8 2.5-2 5.5-2.8 6.7-.7 1.2-1.3 2.4-1.3 2.7.1 1.6-18.7 49.6-19.9 51-.5.5-.6 1.5-.3 2.2.3.8 0 1.4-.7 1.4-.6 0-.9.3-.6.8.2.4-.4 2.5-1.4 4.7-1.1 2.2-1.9 4.8-2 5.8 0 1-.4 1.6-.8 1.3-.4-.2-.8.4-.9 1.4-.1 1.6-3.4 10.1-8.1 21.5-.9 2.1-1.8 4.3-1.8 4.7-.1.4-.3 1.1-.4 1.5-.1.5-.2 1.1-.1 1.5 0 .5-.3.8-.8.8-.8 0-2.5 5.6-2.2 7.2 0 .5-.3.8-.9.8-.5 0-1 .6-1 1.3 0 1.3-5.6 15.9-8.6 22.4-.8 1.7-1.4 3.5-1.4 4 0 .6-.7 2.4-1.6 4.2-.9 1.7-1.7 3.7-1.8 4.4-.1.7-.8 2.3-1.6 3.7-.7 1.4-1.2 2.5-1.1 2.5.1 0-.3 1.3-.9 3-.7 1.6-1.3 3.4-1.4 4-.3 1-.8 2.2-3.9 9.7-.8 2-1.3 3.9-.9 4.2.3.3 0 .6-.7.6s-.9.4-.6 1c.3.5.1 1-.4 1-.6 0-1 .3-1 .7.1.5 0 1-.1 1.3-.1.3-.3 1.2-.5 2.1-.1.9-.9 3.2-1.8 5-2 4.6-5.9 14.4-10.2 25.9-2 5.2-4.2 10.8-4.9 12.5-.8 1.6-2.2 5.2-3.1 8-1 2.7-2.8 7.2-4 10-1.2 2.7-2.5 6.1-2.9 7.5-.4 1.4-1.1 3.4-1.6 4.5-.6 1.1-4.4 10.8-8.5 21.5-4.2 10.7-8 20.4-8.4 21.5-.5 1.1-1.4 3.6-2.1 5.5-.7 1.9-1.6 4.4-2.1 5.5-.4 1.1-3.8 9.6-7.4 19-3.7 9.3-7.3 18.6-8 20.5-1.7 4-3.8 9.3-4 10-.1.3-.5 1.4-1 2.5-.4 1.1-3.9 10.1-7.7 20-3.8 9.9-7.3 18.9-7.8 20-1.2 2.7-6.1 14.8-6.4 16-.2.5-.6 2.2-1.1 3.7-.4 1.6-1 2.8-1.4 2.8-.4 0-.7.8-.8 1.7-.1 1-3.4 9.6-7.2 19.2-3.9 9.6-6.8 17.7-6.6 18.2.3.4.1.9-.3 1.1-.5.1-3.7 7.7-7.2 16.8-3.5 9.1-7 18.1-7.9 20-.8 1.9-1.5 3.7-1.6 4-.1.3-.5 1.4-.9 2.5-4.5 11.5-10.1 26.1-10.2 26.5-.1.6-2.2 5.9-3.3 8.5-1.2 2.5-2.3 5.7-2.6 7-.4 1.8-6.7 17-8.2 19.7-.8 1.6-1.1 2.8-.8 2.8.3 0 0 1-.7 2.2-.7 1.3-1.3 2.5-1.4 2.8-.1.7-1.1 3.4-4.1 11-3.9 10.2-4 10.3-5.3 13.5-.8 1.6-1.4 3.4-1.6 4-.2 1.1-3.9 10.7-5.3 14-2 4.6-5.4 13-5.6 14-.1.5-.7 2.1-1.2 3.5-.6 1.4-3 7.4-5.3 13.5-2.3 6-5 12.8-6 15-.9 2.2-2.3 5.8-3 8-.7 2.2-1.6 4.4-2.1 4.9-.5.6-.9 1.6-.9 2.3 0 .8-.9 3.3-2 5.5-1.1 2.3-2 4.7-2 5.2 0 .6-.6 2.2-1.3 3.6-.7 1.4-2.1 4.7-3.1 7.5-1 2.7-2.1 5.9-2.6 7-2.5 5.8-6.2 15.2-6.5 17-.3 1.1-.9 2.1-1.5 2.3-.6.2-.8.8-.5 1.2.3.5-.3 2.8-1.4 5.2-1 2.4-3.8 8.9-6 14.5-2.3 5.6-4.6 11.5-5.3 13-.6 1.5-1.1 3.1-1 3.5.1.5-.2.8-.8.8-.5 0-1 .5-1 1 0 .6-.7 2.7-1.7 4.8-.9 2-1.7 3.9-1.7 4.2-.6 2.8-19.9 38.8-21.5 40-.3.3-1.5 2.2-2.6 4.2-1.1 2.1-2.3 3.8-2.7 3.8-.5 0-.8.5-.8 1 0 .6-.4 1.6-1 2.3-.5.7-3.3 4.1-6.1 7.7-7.2 9-21 22.6-29.4 28.8-3.8 2.8-7.4 5.5-8 5.9-.5.5-2.8 1.7-5 2.8-2.2 1.1-5.3 2.9-7 4-1.6 1.1-3.2 1.9-3.5 1.9-.3-.1-1.6.3-3 .8s-4.6 1.4-7.2 2l-4.8 1.1v27.9l6.3-.6c3.4-.4 8.1-.9 10.4-1.2 11.9-1.4 29.3-1.7 100.3-1.7 78.2-.1 103.4.4 147.5 2.8l12.1.7-.2-13.3c-.1-7.4-.2-13.7-.3-14 0-.3-3.1-.6-6.8-.7-8.2-.2-22.1-1.6-27.3-2.7-1.4-.3-4.1-.8-6-1.1-1.9-.2-5.6-.9-8.1-1.5-2.6-.6-5.4-1.1-6.3-1.3-.8-.1-1.9-.5-2.2-.9-.4-.4-1.5-.7-2.3-.7-6.1 0-26.9-9.1-34-14.8-4.5-3.6-12.1-11-12.1-11.8 0-.3-1.2-2-2.6-3.7-6.4-7.6-12.5-25-14-39.7-1.2-11.6-.6-35.4 1.1-44.2.3-1.3.7-4.3 1-6.7.3-2.5.8-5.4 1-6.5.3-1.2.7-3.2.9-4.6.2-1.4 1.1-5.5 2-9.1.8-3.7 1.7-7.8 2-9 .2-1.3.9-3.5 1.4-4.9.5-1.4 1-3 1.1-3.5.1-.6.6-2.8 1.2-5s1.2-4.5 1.3-5c.2-.6 1.3-4.4 2.6-8.5s2.4-7.7 2.5-8c0-.3.9-3 2-6s1.8-5.8 1.7-6.3c-.1-.4.2-.7.6-.7.4 0 .8-.8.9-1.8.2-2.1 14.6-40.8 19.3-51.7.8-1.7 1.4-3.5 1.5-4 .2-.6 3.3-8.7 6.9-18 3.7-9.4 6.8-17.5 7-18 .2-.6.8-2.1 1.3-3.5.6-1.4 1.8-4.7 2.7-7.3.9-2.7 2.3-6.2 3.2-7.8.8-1.6 1.2-3.4.9-3.9-.3-.6-.1-1 .4-1 .6 0 1.1-.6 1.1-1.3 0-.6 1.6-4.9 3.4-9.4 1.9-4.5 3.1-8.4 2.8-8.8-.3-.3 1-.3 2.9-.1 1.9.2 4.2-.1 5.2-.6.9-.5 1.7-.5 1.7 0 0 1 8.1.9 9.8-.2.7-.4 1.2-.4 1.2.1 0 .4 7.7.8 17 .8 9.4 0 17-.4 17-.8s.8-.4 1.8.1c2.1 1 9.2.9 11-.1.6-.5 1.2-.5 1.2 0 0 .4 11.3.8 25 .8 13.8 0 25-.4 25-.8s.8-.4 1.8.1c2.1 1 9.2.9 11-.1.6-.5 1.2-.5 1.2 0 0 .4 7.6.8 17 .8 9.3 0 17-.4 17-.8 0-.5.5-.5 1.2-.1 1.6 1 30.8 1.1 30.8.1 0-.4.8-.4 1.8.1 2.1 1 9.2.9 11-.1.6-.5 1.2-.5 1.2 0 0 1 26.1 1 27.8-.1.6-.4 1.2-.4 1.2.1 0 .4 8.3.8 18.5.8s18.5-.4 18.5-.8.8-.4 1.8.1c2.1 1 9.2.9 11-.1.6-.5 1.2-.4 1.2.1s1.8.8 4 .6c3.6-.3 4.2 0 5.2 2.4.6 1.5 1.4 3.6 1.9 4.7.4 1.1 2.2 6 3.9 11 1.7 4.9 3.5 9.9 4 11 1 2.4 2.2 5.7 2.5 6.7.2.5.4 1 .5 1.3.1.3.3.8.5 1.2.2.8.6 2 2.4 6.8 2.1 5.3 3.3 9.1 3.4 10.2 0 .7.4 1.3.9 1.3.4 0 .8.7.8 1.5 0 1.2 6.7 20.3 9.1 26 .5 1.1 1.8 4.7 3 8 1.1 3.3 2.3 6.7 2.6 7.5.4.8.7 1.7.8 2 0 .3 1.1 3.2 2.3 6.5 2.7 7.2 3.1 8.3 3.3 9.3.1.4 1 2.9 2.1 5.7 1.1 2.7 3.1 7.9 4.3 11.5 3.1 8.7 16.4 45.1 17.2 47 .3.8.7 1.7.8 2 .5 2.1 1.9 6 3 8.5.7 1.6 3.7 9.7 6.6 18 2.9 8.2 5.5 15.4 5.9 16 .3.5 1.2 3 2 5.5.7 2.5 1.7 4.9 2.2 5.4.4.6.8 1.6.8 2.2 0 .7.5 2.5 1.2 4.1.6 1.5 1.2 3.2 1.3 3.8 0 .5.4 1.7.8 2.5.8 1.9 5.5 19.6 6.2 23.5 2.6 14.5 2.5 28.8-.4 36.8-2 5.8-9.2 14.7-11.8 14.7-.7 0-1.3.4-1.3.9 0 1-10.7 6.4-12.7 6.4-.7 0-1.3.4-1.3.9 0 .4-.3.7-.7.6-.5-.1-3.3.6-6.4 1.5-3 .9-7.3 1.9-9.5 2.3-2.1.3-4.3.8-4.8 1.2-.5.3-2.8.6-5 .8-2.3.2-5.2.5-6.6.8-5.2 1-11.8 1.6-22 2.2-5.8.3-10.8.9-11.2 1.3-.7.6-1 8.4-.9 20.3l.1 6.7 7.3-.4c3.9-.2 10.8-.7 15.2-1 26.1-1.7 78-2.4 179.5-2.4 96.6 0 140.4.4 141.9 1.3.6.4 1.1.2 1.1-.4 0-.6.4-.9.9-.6.5.3 9.4.8 19.7 1.1 23.4.7 33.2 1.1 45.4 2l9.5.6v-13.5c0-7.4-.3-13.7-.5-14-.3-.2-1.9-.7-3.5-1-1.7-.2-3-.5-3-.6 0-.1-1-.4-5-1.3-4.9-1.2-18.1-7.1-19.5-8.8-.3-.3-1.6-1.2-3-1.9-5.4-2.8-16.8-13.2-24.1-21.8-5-5.9-16.5-24.8-16.1-26.4.1-.3-.5-1.2-1.3-1.8-.8-.7-1.5-1.6-1.5-2.1s-1.3-3.7-2.9-7.1c-3.3-7.2-4.3-9.7-4.7-11.7-.1-.7-.7-1.8-1.3-2.4-.6-.6-1.1-1.7-1.1-2.4s-.8-3.2-1.9-5.6c-1-2.3-2.9-6.9-4.1-10.2-1.2-3.3-2.8-7.4-3.5-9-1.5-3.5-5.8-14.6-6.1-15.8-.1-.4-.3-.9-.4-1.2-.1-.3-.3-.8-.4-1.3-.2-.4-.7-1.8-1.4-3.2-.6-1.4-2.3-5.7-3.7-9.5-1.4-3.9-3-7.9-3.5-9-.5-1.1-3.2-8.1-6-15.5s-5.5-14.4-5.9-15.5c-1.8-4.5-2.9-7.1-4.2-10-.7-1.7-1.3-3.2-1.4-3.5-.5-2.2-1.9-6-3-8.5-.8-1.7-2.6-6.2-4-10-1.4-3.9-3-7.9-3.5-9-.4-1.1-2.2-5.6-3.9-10-1.7-4.4-3.6-9.4-4.2-11-.7-1.7-1.3-3.2-1.4-3.5-.6-1.7-1.8-4.9-2.7-7-.6-1.4-1.2-3-1.4-3.5-.3-1.4-9.2-24.4-10.7-27.5-.6-1.4-1.2-3-1.2-3.5-.1-.6-.7-2.1-1.3-3.5-1.9-4.2-6.2-15.3-6.2-16.1 0-.3-.8-2.4-1.7-4.5-.9-2.2-1.7-4.1-1.8-4.4-.1-.3-.7-1.9-1.4-3.5-.6-1.7-3-7.7-5.2-13.5s-4.4-11.4-4.9-12.5c-1.3-2.6-8.1-20.7-8.4-22-.1-.6-.7-2-1.4-3.1-.6-1.2-.8-2.4-.5-2.8.3-.3.1-.6-.6-.6s-1-.4-.6-.9c.3-.5.1-1.2-.4-1.5-.5-.3-1.2-1.7-1.5-3.1-.5-2-11.1-29.9-14.5-38-.5-1.1-.9-2.3-.9-2.8-.1-.4-.8-2-1.6-3.6-.9-1.6-1.2-3.1-.9-3.5.4-.3.1-.6-.5-.6-.7 0-1.2-.7-1.2-1.5 0-1.2-4.2-12.7-6.9-19-.5-1.1-2.4-5.8-4.1-10.5-1.8-4.7-3.8-9.9-4.5-11.5-.6-1.7-2.2-5.7-3.5-9-1.2-3.3-3.3-8.6-4.6-11.8-1.3-3.1-2.1-5.7-1.7-5.7.3 0 .1-.6-.5-1.3-.5-.6-2.3-4.8-4-9.2-1.6-4.4-3.3-8.9-3.8-10-.4-1.1-.8-2.2-.9-2.5 0-.3-.8-2.1-1.7-4-.8-1.9-2.1-5.1-2.8-7-.7-1.9-1.9-5-2.7-6.9-.8-1.8-1.6-3.9-1.8-4.5-.1-.6-.7-2.2-1.2-3.6-.6-1.4-1.1-2.7-1.1-3-.1-.3-2-5-4.2-10.5-2.3-5.5-4.3-10.5-4.4-11-.1-.6-1.5-4.4-3.1-8.5s-3-7.7-3-8c-.1-.3-.9-2.2-1.8-4.4-.9-2.1-1.7-4-1.7-4.2 0-.1-.5-1.5-1.2-3.1-.6-1.5-1.2-3-1.3-3.3-.1-.3-.7-1.8-1.3-3.3-.7-1.6-1.2-3.4-1.2-4 0-.7-.6-2.1-1.3-3.2-.7-1.1-1.8-3.8-2.5-6-.8-2.2-1.7-4.9-2.2-6-.5-1.1-2.8-6.7-5-12.5s-4.5-11.4-5-12.5c-.9-2.2-4.4-11.7-4.6-12.5 0-.3-.6-1.6-1.2-3s-3.9-9.7-7.2-18.5c-3.4-8.8-6.6-16.9-7.1-18-.4-1.1-2.9-7.4-5.4-14-2.5-6.6-5.3-13.8-6.2-16-2.1-5.4-2.4-6.1-8.2-21-2.8-7.2-5.1-13.3-5.1-13.8 0-.7-3.4-8.8-5.1-11.9-.5-1-.9-2.6-.9-3.6s-.4-2.2-.8-2.8c-.5-.5-1.9-3.6-3.1-6.9-1.3-3.3-2.7-6.9-3.1-8-4.3-10.9-8.3-21.1-10.3-26.5-1.4-3.6-2.8-7.4-3.2-8.5-.5-1.1-.7-2.3-.7-2.8.1-.4-.3-.7-1-.7-.6 0-.9-.3-.5-.6.3-.4 0-1.9-.8-3.4s-1.1-3-.8-3.4c.4-.3.1-.6-.5-.6-.7 0-1.2-.6-1.2-1.4 0-1.4-2.7-8.7-6.1-16.3-1.1-2.4-1.9-4.7-1.9-5.3 0-.6-.9-3-2.1-5.4-1.1-2.5-2.2-5.1-2.3-5.8-.1-.7-1-3-1.9-5.1-.9-2.1-1.8-4.5-1.9-5.5-.2-.9-.6-1.9-.9-2.2-.3-.3-3-6.8-5.9-14.5-2.9-7.7-6.1-16-7-18.5-1-2.5-3.5-8.9-5.5-14.2l-3.8-9.8-11.6.6c-14.9.7-53.7.8-70.9 0-12-.5-13.3-.4-13.8 1.2zm-46.9 217.7c1.5 3.8 3.3 8.8 4 11 .7 2.2 2.7 7.8 4.5 12.5 1.7 4.7 3.8 10.5 4.7 13 .8 2.5 1.9 4.9 2.4 5.4.5.6.9 2 .9 3.1 0 1.2.3 2.5.7 2.8.6.7 5.1 12.8 5.6 15.4.2.7.6 1.6 1 1.9.4.4.7 1.6.7 2.6s.4 1.8.8 1.8.8.8.9 1.7c.1 1 .7 3.1 1.4 4.8.7 1.6 1.3 3.4 1.5 4 1.4 4.5 7.8 21.6 8.9 24.2.9 1.7 1.8 4.5 2.1 6.2.4 1.7 1.1 3.4 1.5 3.7.5.3.7 1 .4 1.5-.4.5-.1.9.4.9.6 0 1 .3.9.7-.2.9.9 4.7 2.2 7.8.5 1.1 2.9 7.8 5.5 15 2.5 7.1 4.9 13.7 5.2 14.5.4.8.7 1.7.8 2 .1.3.6 1.6 1.2 3 .5 1.4 1.8 5 2.9 8 1 3 2.4 6.6 3.1 7.9.7 1.4 1 2.8.7 3.3-.3.4 0 .8.6.8s.9.3.7.7c-.3.5 0 1.9.6 3.3.5 1.4 1.1 2.9 1.3 3.5.7 2.4 4.7 13.1 5.2 14 .4.5.7 1.4.8 2 .1.5 1.2 3.7 2.4 7 7.1 19.4 12.3 33.4 13.3 36 .6 1.6 1.2 3.4 1.3 4 .2.9 8.7 24.3 10.1 27.5.3.8.7 1.9.8 2.5.5 1.7 8.7 23.9 9.7 26 .5 1.2 1 2.7 1.2 3.5.2.8.8 2.8 1.4 4.3.7 1.6 1.2 3.3 1.2 3.8s.5.9 1.1.9c.5 0 .7.4.4 1-.3.5.3 3.1 1.4 5.7 2.1 5 12.4 33.3 13.5 36.9l.6 2H380.1c-76.4-.1-139.2-.4-139.6-.7-.3-.4.2-2.4 1.1-4.5 2-4.5 1.8-3.9 2.8-8.2.4-1.7 1.2-3.2 1.6-3.2.5 0 .7-.7.4-1.5-.4-.8-.1-1.5.5-1.5s1-.3.9-.8c-.2-.6 3.7-11.6 6.6-18.7.7-1.7 1.9-4.6 2.6-6.5.6-1.9 1.6-4.4 2.1-5.5.5-1.1 2.5-6.3 4.4-11.5 4.3-11.4 4.4-11.8 4.6-12.8 0-.4.6-1.6 1.2-2.7s1.1-2.3 1.2-2.7c0-.3.3-1 .8-1.4.4-.4.7-1.4.7-2.3 0-.9.6-2.7 1.3-4.1.7-1.4 2.4-5.4 3.6-9 2.5-6.9 4-10.6 6.1-15.5.7-1.7 1.5-3.7 1.6-4.5.2-.8.7-2.3 1.2-3.5.6-1.1 1.5-3.4 2.1-5 .6-1.7 1.6-4.4 2.2-6 .7-1.7 1.3-3.2 1.4-3.5.1-.3.6-1.6 1.2-3s2.2-5.8 3.7-9.9c1.5-4.1 3-7.9 3.4-8.5.3-.6.7-1.6.9-2.1.1-.6 2-5.6 4.1-11.3 2.2-5.6 3.7-10.2 3.4-10.2-.4 0-.2-.4.4-.8 1.1-.7 5-11.1 4.6-12.5-.1-.4.2-.7.8-.7.5 0 1-.8 1-1.8 0-.9.7-3 1.5-4.6.8-1.5 1.5-3.5 1.5-4.2 0-.8.5-1.4 1-1.4.6 0 .9-.3.8-.8-.3-.9 3.1-11 4.5-13.7.6-1.1 1.2-2.5 1.3-3.1.1-.6 1.8-5.3 3.9-10.5 2-5.2 4.2-10.8 4.8-12.4.6-1.7 1.2-3.2 1.3-3.5 0-.3.5-1.6 1.1-3 2.7-6.2 3.6-8.6 3.8-9.5.1-1 1-3.4 2.5-7 1.3-2.9 4.3-10.7 8-20.5 1.7-4.7 3.8-9.9 4.5-11.5.7-1.7 1.8-4.8 2.5-7s1.6-4.5 2.1-5.1c.5-.6.6-1.4.2-1.7-.3-.4-.1-.7.5-.7.7 0 1.1-.3 1-.8-.1-.4.4-2.3 1.1-4.2 1.6-3.9 1.5-3.7 2.5-6.5.4-1.1 1.4-3.5 2.2-5.3.8-1.8 1.4-3.7 1.4-4.2 0-.6.8-2.9 1.9-5.3 1-2.3 3.5-8.5 5.4-13.7 1.9-5.2 3.9-10.4 4.3-11.5.8-2.2 1.1-3.1 1.3-4.2.3-1.6 2.1 1.7 4.6 8.2zM969 500l-6.5.5v13.2c0 8.3.4 13.3 1 13.4.5.1 4.4.3 8.5.5s9.8.7 12.5 1c2.8.3 6.7.7 8.7.8 2.1 0 3.8.5 3.8 1 0 .4.9.6 2 .3s2.3-.1 2.6.4c.3.5.9.7 1.3.4.5-.2 2.3 0 4.2.6 1.9.5 5 1.2 6.9 1.5 1.9.3 4 1 4.6 1.5.6.5 1.4.6 1.7.2.4-.3 1.2-.1 1.9.4s3.3 1.5 5.8 2.2c5.7 1.7 14.5 7.7 19.8 13.6 4.3 4.8 9.8 15 10.6 19.7.3 1.5.7 3.2 1 3.7.5.8 1.2 4.3 2.1 11.1.2 1.4.6 3.6.9 5 .4 1.4.8 4.3 1.1 6.5.2 2.2.6 5.1.9 6.5.3 1.4.7 5.9 1.1 10 .6 8.1.6 739.3 0 750-.4 6.4-1.2 13.5-1.5 13.5-.1 0-.3 1.1-.5 2.5-.6 4.7-1.5 10.5-2 13-.4 1.4-.8 3.4-1 4.5-.9 4.9-1.6 8.1-2.2 10-.4 1.1-.8 2.3-.9 2.7-.1.5-.3 1-.4 1.3-.1.3-.3.8-.5 1.2-1.5 5.5-8 14.4-14.2 19.6-4.1 3.4-12.6 8.2-14.3 8-.3-.1-1.3.3-2.3.9-1 .5-3.1 1.2-4.5 1.5-4.1.8-5.7 1.1-5.7 1.3 0 .2-.7.3-6 1.4-4.3.9-13.5 2.6-17 3.2-1.6.2-4.2.6-5.7.9-1.4.2-7.3.7-13 1.1-5.6.4-10.5.9-10.8 1.1-.2.2-.5 6.5-.5 13.9l-.1 13.5 8.1-.6c13.7-1 25.3-1.5 44-2 9.9-.2 18-.5 18-.5 0-.4 74.6-.9 139.5-.9 121.7 0 173.2.8 210.3 3.4l7.7.5.1-7.2c.1-8.8-.1-20.1-.4-20.4-.1-.1-4.7-.4-10.2-.8-8.3-.5-15.5-1.2-21-2-.5-.1-1.4-.4-2-.7-.5-.3-2.8-.7-5-.8-2.2-.2-4.8-.7-5.8-1.3-1-.5-2.4-.7-3.2-.5-.7.3-2.4-.1-3.9-.8-1.4-.8-2.6-1.2-2.6-1 0 .5-12-3.1-15.5-4.7-9.1-4.1-18.1-12.7-22.6-21.6-1.3-2.6-2.4-4.9-2.4-5.2-.1-.3-.7-2.3-1.3-4.5-.6-2.2-1.3-5.1-1.6-6.5-.2-1.4-.5-2.5-.6-2.5-.1 0-.3-1.1-.6-2.5-.7-4-1.3-7.3-1.8-10-1.7-9.1-2.1-13.9-3.1-31-.3-6.3-.8-12.7-1-14.3-.2-1.5.1-2.7.6-2.7.6 0 .6-.7.1-1.8-.5-.9-.7-2.5-.3-3.4.3-.9.4-6.5.1-12.3-.3-5.9-.3-10.8 0-11 .3-.2.3-5.3 0-11.4-.3-6.1-.3-12 0-13.2.3-1.2.3-5 0-8.6-.3-3.5-.3-6.6 0-6.8.3-.2.3-5.6 0-12s-.3-11.8 0-12c.3-.2.3-5.6 0-12s-.3-11.8 0-12c.3-.2.3-5.6 0-12s-.3-11.8 0-12c.3-.2.3-5.6 0-12s-.3-11.8 0-12c.3-.2.3-5.6 0-12s-.3-11.8 0-12c.3-.2.3-5.6 0-12s-.3-11.8 0-12c.3-.2.3-5.6 0-12s-.3-11.8 0-12c.3-.2.3-5.6 0-12s-.3-11.8 0-12c.3-.2.3-5.6 0-12s-.3-11.8 0-12c.3-.2.3-5.6 0-12s-.3-11.8 0-12c.3-.2.3-5.6 0-12s-.2-11.9.1-12.1c.4-.2.4-1.4.2-2.6l-.4-2.3h367.2l-.4 181c-.3 161.9-.6 191.1-2.2 196.5-.2.8-.7 3.5-1 6-.3 2.5-.8 5.2-1 6-.2.8-.7 2.8-1 4.5-1.8 10.5-3.2 15.5-6.4 22.5-1.7 3.8-2.7 5.3-8.4 11.6-6 6.7-15.7 12.2-24.7 14.1-4.5.9-5.5 1.1-5.5 1.3 0 .1-1.1.4-2.5.7-3.9.7-5.5 1.1-5.5 1.3 0 .2-3.2.8-7.5 1.4-1.9.3-5.1.8-7 1.1-1.9.4-4.6.8-6 1.1-3 .5-18.4 1.7-22.2 1.7-1.6.1-2.8.5-2.9 1.1 0 .6-.2 6.9-.2 13.9l-.2 12.8 10-.7c41.2-2.6 85.8-3.3 207-3.3 105.6 0 132.5.2 132.5 1.1 0 .4 1 .4 2.3-.1 1.2-.4 3.1-.7 4.2-.5 1.1.2 10.8.6 21.5.8 10.7.3 23.3.8 28 1.1 4.7.3 11.5.8 15.3 1l6.7.5v-28l-5.2-.1c-2.9-.1-6.4-.2-7.8-.4-1.4-.1-5.6-.6-9.5-1-3.8-.4-7.7-.9-8.7-1.1-5.4-1.2-6.5-1.4-9-1.6-1.6-.1-2.8-.6-2.8-1.1 0-.4-.4-.6-.8-.3-1.1.7-21.2-4.7-24.9-6.7-6.7-3.5-8.3-4.5-11.4-7.3-3.7-3.2-8.6-9.4-8.7-10.8 0-.5-.4-1.2-.9-1.5-2.1-1.4-6.9-15.5-7.8-22.6-.1-1.1-.6-3.6-1-5.5-.5-1.9-.9-4.9-1.1-6.5-.1-1.7-.3-3.2-.5-3.5-.1-.3-.3-1.6-.4-3-.2-1.4-.4-2.7-.5-3-.5-1.3-.9-6.4-1.4-16-.3-5.8-.6-10.7-.6-11-.2-3.4.2-728.9.5-732.5.1-2.8.6-7.7 1-11s.8-7.4 1-9c.4-4 1.5-9.9 3.1-17.5.3-1.4.7-3.6 1-5 2.1-10.9 10.4-24 18.4-28.9 1.9-1.2 4.2-2.6 5-3.1 1.9-1.3 9-4.2 11-4.6.8-.1 4.8-1.1 8.8-2.2 3.9-1.1 7.2-1.8 7.2-1.5 0 .3.7-.1 1.7-.8.9-.8 1.7-1.2 1.7-1 .1.3 9-.7 13.1-1.6 2.5-.5 16-1.4 23.8-1.6l5.7-.2v-13.7c0-7.6-.3-13.8-.7-13.9-4.2-.3-9.3-.3-9.3.1 0 .3-2.8.6-6.2.6-3.5.1-17.3.4-30.8.7-13.5.4-34.6 1-46.9 1.3-12.4.3-22.8.7-23.3 1-.4.3-.8-.1-.8-.8 0-.8-.3-.9-.8-.3-.4.6-10.5 1-26.7 1-14.3 0-26.5.4-27.2.8-.6.4-1.3.4-1.6 0-.3-.4-2.7-.7-5.4-.6-9.3.3-17.4.4-21.3.3-.8 0-2.6 0-4 .1-1.4 0-2.9.1-3.5 0-11.2-.5-13.2-.5-12.8.3.4.5.1.6-.6.2-.6-.4-20.8-.9-44.9-1.2-24-.2-51.8-.6-61.7-.8-60.5-1.5-84.6-2.3-92.8-2.9-2.1-.1-4.2 0-4.8.3-.7.5-1.3 15.5-1 25.6.1 1.8.7 2 6.9 1.9 3.7 0 7.1.1 7.6.4.5.2 3.4.5 6.5.7 3.1.1 5.6.3 5.6.4 0 .1 1.6.3 3.5.4 1.9.2 4.4.5 5.5.9 1.8.5 6 1.3 12 2.2 1.1.2 2.1.4 2.3.5.1.2.5.3 1 .4.4.1 1.3.5 2 .9.6.5 1.2.6 1.2.3s1.8.1 4 .9 4.4 1.5 4.8 1.6c.4.1 1.7.5 3 1s2.7.9 3.1.9c1.1 0 11.7 7.7 14.6 10.6 1.3 1.3 2.2 2.4 1.9 2.4-.3 0 .6 1 1.9 2.2 1.3 1.3 2.9 3.8 3.6 5.5.8 1.8 1.8 3.3 2.4 3.3.6 0 .7.3.4.6-.3.4-.2 1.5.4 2.6.6 1.1 1.2 2.7 1.4 3.6.2.9 1.1 4.8 2 8.5.9 3.8 1.8 8.7 2.1 11 .3 2.3.7 4.8 1 5.6.8 2.4 1.8 12.2 1.9 17.8 0 2.9.3 5.3.7 5.3.4 0 .8 79.8.8 177.4v177.3l-183.4.1h-183.4l-.4-7.5c-.2-4.1-.1-7.6.2-7.8.3-.2.3-5.6 0-12s-.3-11.8 0-12c.3-.2.3-5.6 0-12s-.3-11.8 0-12c.3-.2.3-5.6 0-12s-.3-11.8 0-12c.3-.2.3-5.6 0-12s-.3-11.8 0-12c.3-.2.3-5.6 0-12s-.3-11.8 0-12c.3-.2.3-5.6 0-12s-.3-11.8 0-12c.3-.2.3-5.6 0-12s-.3-11.8 0-12c.3-.2.3-5.6 0-12s-.3-11.8 0-12c.3-.2.3-5.6 0-12s-.3-11.8 0-12c.3-.2.3-5.6 0-12s-.3-11.8 0-12c.3-.2.3-5.6 0-12s-.3-11.8 0-12c.3-.2.3-5.6 0-12s-.2-11.9.3-12.2c.4-.2.5-.8.3-1.2-.4-.6-.6-8.1-.5-24.1 0-.8-.2-5-.3-9.3-.2-4.4 0-8.4.4-9 .4-.6.2-1.7-.4-2.4-.6-.7-.6-1.3-.2-1.3.5 0 1-1.9 1.1-4.3.2-9.9 1.9-25 3.8-34.7.7-3.4 1.9-9.4 2-10 .1-.3.5-2.2.9-4.3.5-2 1.3-3.7 1.9-3.7.6 0 .7-.3.4-.6-.6-.6 1.2-4.6 3.8-8.3 1.2-1.7 11.7-12.2 13.7-13.6 4.1-2.9 13.4-6.5 20.3-7.8 1.1-.2 2.7-.7 3.5-1 .8-.4 2.6-.8 4-1.1 1.4-.2 3.6-.7 5-1 1.4-.4 4.1-.9 6-1.1 1.9-.2 4.4-.6 5.6-.8 1.1-.3 3.8-.7 6-.8 2.1-.2 4.2-.8 4.6-1.4.5-.6.8-.6.8.2 0 .7.6 1 1.3.7.7-.2 5.3-.6 10.2-.7l9-.3.1-13.7v-13.8l-18.5.6c-47.8 1.3-57.9 1.6-75.6 2.1-10.4.3-35.1.7-54.7.9-19.6.2-36.2.7-36.9 1.1-.7.4-.9.3-.5-.4s-.3-.8-2.3-.2c-1.6.4-3.2.6-3.5.2-.9-.8-14.6-.8-14.6.1 0 .4-.8.3-1.8-.2-1.1-.6-2.4-.6-3.5 0-.9.6-2.2.7-2.8.3-1.6-1-19.9-1.1-19.9-.1 0 .5-.5.5-1 .2-.6-.4-18.9-.9-40.8-1.1-39.1-.5-45.2-.6-96.7-1.9-32.2-.8-38.9-1.1-40.1-1.6-.5-.2-3.8-.2-7.4.1z"/></svg>